<?xml version="1.0" encoding="utf-8"?>
<!-- Generator: Adobe Illustrator 21.0.0, SVG Export Plug-In . SVG Version: 6.00 Build 0)  -->
<svg version="1.0" id="图层_1" xmlns="http://www.w3.org/2000/svg" xmlns:xlink="http://www.w3.org/1999/xlink" x="0px" y="0px"
	 viewBox="0 0 400 94" style="enable-background:new 0 0 400 94;" xml:space="preserve">
<g>
	<path d="M32.5,9.4c-0.1,0-0.1,0-0.1,0v8.7c16,0,29,13,29,29c0,16-13,29-29,29v8.6c0,0,0.1,0,0.1,0c20.8,0,37.6-16.8,37.6-37.6
		S53.3,9.4,32.5,9.4z"/>
	<path d="M32.4,28.1c-10.6,0-19.3,8.6-19.4,19.2h0v37.3h9V47.3h0c0,0,0,0,0,0c0-5.9,4.7-10.6,10.6-10.6s10.6,4.7,10.6,10.6
		s-4.7,10.6-10.6,10.6c-0.1,0-0.2,0-0.3,0v9c0.1,0,0.1,0,0.2,0c10.7,0,19.4-8.7,19.4-19.4C51.8,36.8,43.1,28.1,32.4,28.1z"/>
	<g>
		<path d="M109.3,33.4c7.5,0,12.7,5.1,12.7,12.6c0,7.5-5.3,12.7-12.9,12.7h-8.9v13.1h-6V33.4H109.3z M100.2,53.7h7.5
			c5.2,0,8.2-2.8,8.2-7.6s-3-7.6-8.2-7.6h-7.5V53.7z"/>
		<path d="M161.4,71.9H137V33.4h24.4v5.1H143v11.2h17.5v5H143v11.9h18.4V71.9z"/>
		<path d="M198.9,61.5h-14.7l-3.5,10.4h-6.2l13.9-38.4h6.4l13.9,38.4h-6.3L198.9,61.5z M185.8,56.7h11.6l-5.7-16.9h-0.2L185.8,56.7z
			"/>
		<path d="M228.8,71.9h-6V33.4h15.1c7.9,0,12.8,4.6,12.8,11.7c0,5.2-2.8,9.4-7.5,11l8.6,15.7H245l-7.8-14.8h-8.4V71.9z M228.8,52.2
			h8.6c4.6,0,7.3-2.5,7.3-6.9c0-4.3-2.8-6.9-7.4-6.9h-8.4V52.2z"/>
		<path d="M290.2,71.9h-23.9V33.4h6v33.3h17.9V71.9z"/>
		<path d="M320.1,72.5c-11,0-17.9-7.7-17.9-20c0-12.1,6.9-19.7,17.9-19.7c8.6,0,15,5.1,16.4,12.7h-6.1c-1.4-4.8-5.2-7.5-10.2-7.5
			c-7.4,0-11.8,5.4-11.8,14.4c0,9.2,4.6,14.9,11.9,14.9c6.2,0,10.6-4,10.6-9.8v-0.7h-9.9V52h15.8v3.9
			C336.7,66.3,330.5,72.5,320.1,72.5z"/>
		<path d="M387,52.6c0,12.2-7,19.9-18,19.9c-11.1,0-18-7.6-18-19.9c0-12.2,6.9-19.9,18-19.9C380,32.8,387,40.4,387,52.6z
			 M357.1,52.6c0,9,4.6,14.6,11.9,14.6c7.3,0,11.9-5.6,11.9-14.6c0-9-4.6-14.6-11.9-14.6C361.7,38,357.1,43.7,357.1,52.6z"/>
	</g>
</g>
</svg>
